<svg width="475" height="97" viewBox="0 0 475 97" fill="none" xmlns="http://www.w3.org/2000/svg">
<path d="M117.09 0V97M119.25 0V97M124.65 0V97M128.969 0V97M137.068 0V97M138.688 0V97M140.308 0V97M147.868 0V97M151.647 0V97M155.967 0V97M161.366 0V97M162.986 0V97M164.606 0V97M171.086 0V97M178.645 0V97M184.584 0V97M189.984 0V97M191.604 0V97M193.224 0V97M198.083 0V97M202.403 0V97M207.263 0V97M211.582 0V97M212.662 0V97M214.822 0V97M221.841 0V97M228.861 0V97M232.1 0V97M235.34 0V97M237.5 0V97M242.9 0V97M247.219 0V97M255.319 0V97M256.938 0V97M258.558 0V97M266.118 0V97M269.897 0V97M274.217 0V97M279.616 0V97M281.236 0V97M282.856 0V97M289.336 0V97M296.895 0V97M302.834 0V97M308.234 0V97M309.854 0V97M311.474 0V97M316.333 0V97M320.653 0V97M325.513 0V97M329.832 0V97M330.912 0V97M333.072 0V97M340.091 0V97M347.111 0V97M350.35 0V97M352.51 0V97M355.75 0V97M358.99 0V97M361.15 0V97M366.549 0V97M370.869 0V97M378.968 0V97M380.588 0V97M382.208 0V97M389.767 0V97M393.547 0V97M397.866 0V97M403.266 0V97M404.886 0V97M406.506 0V97M412.985 0V97M420.545 0V97M426.484 0V97M431.884 0V97M433.503 0V97M435.123 0V97M439.983 0V97M444.303 0V97M449.162 0V97M453.482 0V97M454.562 0V97M456.721 0V97M463.741 0V97M470.76 0V97M474 0V97M1 0V97M4.23973 0V97M7.47945 0V97M9.63927 0V97M15.0388 0V97M19.3584 0V97M27.4578 0V97M29.0776 0V97M30.6975 0V97M38.2569 0V97M42.0365 0V97M46.3562 0V97M51.7557 0V97M53.3756 0V97M54.9954 0V97M61.4749 0V97M69.0342 0V97M74.9737 0V97M80.3733 0V97M81.9932 0V97M83.613 0V97M88.4726 0V97M92.7922 0V97M97.6518 0V97M101.971 0V97M103.051 0V97M105.211 0V97M112.231 0V97M122.49 0V97" stroke="white"/>
</svg>
