<svg width="704" height="30" viewBox="0 0 704 30" fill="none" xmlns="http://www.w3.org/2000/svg">
<path d="M702 2L682 26L662 2" stroke="white" stroke-width="3"/>
<path d="M335 2L315 27L295 2" stroke="white" stroke-width="3"/>
<path d="M581 2L561 21L541 2" stroke="white" stroke-width="3"/>
<path d="M457 3L437 27L417 3" stroke="white" stroke-width="3"/>
<path d="M92 3L72 22L52 3" stroke="white" stroke-width="3"/>
<path d="M662 4L642 23L622 4" stroke="white" stroke-width="3"/>
<path d="M294 2L274 17L254 2" stroke="white" stroke-width="3"/>
<path d="M173 2L153 25L133 2" stroke="white" stroke-width="3"/>
<path d="M416 3L396 23L376 3" stroke="white" stroke-width="3"/>
<path d="M51 2L26 22L1 2" stroke="white" stroke-width="3"/>
<path d="M621 2L601 25L581 2" stroke="white" stroke-width="3"/>
<path d="M253 2L233 21L213 2" stroke="white" stroke-width="3"/>
<path d="M497 2L477 27L457 2" stroke="white" stroke-width="3"/>
<path d="M132 2L112 26L92 2" stroke="white" stroke-width="3"/>
</svg>
