<svg width="703" height="44" viewBox="0 0 703 44" fill="none" xmlns="http://www.w3.org/2000/svg">
<path d="M2 42L22 15L42 42" stroke="white" stroke-width="3"/>
<path d="M367 42L387 19.5L407 42" stroke="white" stroke-width="3"/>
<path d="M123 42L143 19.5L163 42" stroke="white" stroke-width="3"/>
<path d="M489 42L509 26L529 42" stroke="white" stroke-width="3"/>
<path d="M245 42L265 4L285 42" stroke="white" stroke-width="3"/>
<path d="M610.5 42L630.5 19.5L650.5 42" stroke="white" stroke-width="3"/>
<path d="M42 41.5L62 19L82 41.5" stroke="white" stroke-width="3"/>
<path d="M408 42L428 15L448 42" stroke="white" stroke-width="3"/>
<path d="M164 42L184 31L204 42" stroke="white" stroke-width="3"/>
<path d="M529 41.5L549 19L569 41.5" stroke="white" stroke-width="3"/>
<path d="M285.5 41.5L305.5 19L325.5 41.5" stroke="white" stroke-width="3"/>
<path d="M651 42L676 19L701 42" stroke="white" stroke-width="3"/>
<path d="M83 42L103 15L123 42" stroke="white" stroke-width="3"/>
<path d="M448.5 41.5L468.5 19L488.5 41.5" stroke="white" stroke-width="3"/>
<path d="M204.5 41.5L224.5 19L244.5 41.5" stroke="white" stroke-width="3"/>
<path d="M570 42L590 9L610 42" stroke="white" stroke-width="3"/>
<path d="M327 42L347 26L367 42" stroke="white" stroke-width="3"/>
</svg>
